<svg id="Layer_1" data-name="Layer 1" xmlns="http://www.w3.org/2000/svg" viewBox="0 0 122.88 120.88"><defs><style>.cls-1{fill-rule:evenodd;}</style></defs><title>office</title><path class="cls-1" d="M14.9,7.67H29.38V2.88a2.86,2.86,0,0,1,.84-2h0a2.87,2.87,0,0,1,2-.85H90.62a2.87,2.87,0,0,1,2,.85l.13.13a2.9,2.9,0,0,1,.72,1.9V7.67h14.23a4.56,4.56,0,0,1,4.55,4.54V45.26a4.56,4.56,0,0,1-4.55,4.54H93.5v4.72h27a2.43,2.43,0,0,1,1.7.7h0a2.4,2.4,0,0,1,.71,1.7v62.31a1.64,1.64,0,0,1-1.64,1.64H1.64A1.63,1.63,0,0,1,0,119.24V56.92a2.41,2.41,0,0,1,2.41-2.4h27V49.8H14.9a4.55,4.55,0,0,1-4.54-4.54v-33A4.55,4.55,0,0,1,14.9,7.67ZM29.45,20.05a7.28,7.28,0,0,1,5.62,2.15,8.65,8.65,0,0,1,2,6.07A9.5,9.5,0,0,1,34.87,35a7.94,7.94,0,0,1-6.16,2.37,7.21,7.21,0,0,1-5.62-2.18,8.85,8.85,0,0,1-2-6.17,9.34,9.34,0,0,1,2.17-6.61,8,8,0,0,1,6.17-2.33ZM29,24.18a2.74,2.74,0,0,0-1.52.34,2,2,0,0,0-.73,1.23,10.92,10.92,0,0,0-.22,2.55,16.57,16.57,0,0,0,.23,3.24,2.55,2.55,0,0,0,.78,1.55,2.63,2.63,0,0,0,1.64.44,2.73,2.73,0,0,0,1.52-.35,2,2,0,0,0,.73-1.24,11.14,11.14,0,0,0,.22-2.56,17.23,17.23,0,0,0-.23-3.22,2.56,2.56,0,0,0-.79-1.55A2.6,2.6,0,0,0,29,24.18Zm15.78.15-.08,3h1.76l3-.08.29.36-.31,3.76-3.32-.08h-1.5v.34L44.8,37H39.62l.26-4.9-.26-11.77H50.75l.28.36-.33,3.76-4.13-.15Zm13.26,0-.08,3h1.76l3-.08.29.36-.31,3.76-3.33-.08H57.85v.34L58.06,37H52.88l.26-4.9-.26-11.77H64l.28.36L64,24.48l-4.12-.15Zm13.08,7.29.2,5.41H66.14l.25-4.9-.25-11.77h5.25l-.28,11.26ZM83,20.08a12.17,12.17,0,0,1,4.17.7l-.87,4.09-.34.21a6.33,6.33,0,0,0-1.54-.58,6.61,6.61,0,0,0-1.63-.22,2.65,2.65,0,0,0-2.26.91,5.09,5.09,0,0,0-.7,3,6.51,6.51,0,0,0,.8,3.65A2.85,2.85,0,0,0,83.08,33a9.74,9.74,0,0,0,1.61-.15,7.09,7.09,0,0,0,1.56-.4l.41.26-.41,4.07a11.78,11.78,0,0,1-3.58.49q-4.15,0-6.25-2.16c-1.4-1.44-2.1-3.55-2.1-6.31a8.82,8.82,0,0,1,2.26-6.47A8.51,8.51,0,0,1,83,20.08Zm18.36,12.83.28.36-.3,3.76H89.54l.26-4.9-.26-11.77h11.95l.28.36-.33,3.76-4.1-.15H94.69l0,2.34h2.55l2.68-.07.28.36-.31,3.76-3-.08H94.54l0,1,0,1.44H97l4.27-.15ZM32.65,7.67H90.22V3.28H32.65V7.67ZM90.22,49.8H32.65v67.81H90.22V49.8ZM73.33,96.57H82.7a.42.42,0,0,1,.42.42v9.35a.42.42,0,0,1-.42.42H73.33a.42.42,0,0,1-.42-.42V97a.42.42,0,0,1,.42-.42Zm-16.58,0h9.37a.42.42,0,0,1,.42.42v9.35a.42.42,0,0,1-.42.42H56.75a.42.42,0,0,1-.42-.42V97a.42.42,0,0,1,.42-.42Zm-16.58,0h9.37A.42.42,0,0,1,50,97v9.35a.42.42,0,0,1-.42.42H40.17a.42.42,0,0,1-.42-.42V97a.42.42,0,0,1,.42-.42Zm53.31,21h26.13V57.79H93.5v59.82Zm-64.1,0V57.79H3.28v59.82Zm71.51-21h11.46a.28.28,0,0,1,.28.2v5.33c0,.08-.16.21-.28.21H100.89c-.11,0-.28-.1-.28-.21V96.8c0-.11.13-.2.28-.2Zm-90.61,0H22c.15,0,.28.12.28.2v5.33c0,.08-.16.21-.28.21H10.28c-.12,0-.28-.1-.28-.21V96.8c0-.11.13-.2.28-.2Zm90.61-12.95h11.46a.27.27,0,0,1,.28.2v5.33c0,.08-.16.2-.28.2H100.89c-.12,0-.28-.09-.28-.2V83.85c0-.11.13-.2.28-.2Zm0-13h11.46a.28.28,0,0,1,.28.2v5.34c0,.07-.16.2-.28.2H100.89c-.11,0-.28-.09-.28-.2V70.89c0-.1.13-.2.28-.2Zm-90.61,13H22c.15,0,.28.12.28.2v5.33c0,.08-.16.2-.28.2H10.28c-.12,0-.28-.09-.28-.2V83.85c0-.11.13-.2.28-.2Zm0-13H22a.29.29,0,0,1,.28.2v5.34c0,.08-.16.2-.28.2H10.28c-.12,0-.28-.09-.28-.2V70.89c0-.1.13-.2.28-.2ZM73.2,78h9.64a.3.3,0,0,1,.28.28V88a.32.32,0,0,1-.28.27H73.2a.29.29,0,0,1-.28-.27V78.32A.28.28,0,0,1,73.2,78ZM56.62,78h9.64a.3.3,0,0,1,.28.28V88a.32.32,0,0,1-.28.27H56.62a.29.29,0,0,1-.28-.27V78.32a.28.28,0,0,1,.28-.28ZM40,78h9.65a.3.3,0,0,1,.28.28V88a.33.33,0,0,1-.28.27H40a.29.29,0,0,1-.27-.27V78.32A.28.28,0,0,1,40,78ZM73.2,59.32h9.64a.29.29,0,0,1,.28.28v9.64a.32.32,0,0,1-.28.28H73.2a.29.29,0,0,1-.28-.28V59.6a.27.27,0,0,1,.28-.28Zm-16.58,0h9.64a.29.29,0,0,1,.28.28v9.64a.32.32,0,0,1-.28.28H56.62a.29.29,0,0,1-.28-.28V59.6a.27.27,0,0,1,.28-.28ZM40,59.32h9.65a.29.29,0,0,1,.28.28v9.64a.33.33,0,0,1-.28.28H40a.29.29,0,0,1-.27-.28V59.6a.27.27,0,0,1,.27-.28ZM15.1,10.83h92.68a1.37,1.37,0,0,1,1.37,1.37v33a1.38,1.38,0,0,1-1.37,1.37H15.1a1.37,1.37,0,0,1-1.37-1.37v-33a1.37,1.37,0,0,1,1.37-1.37Z"/></svg>